<?xml version="1.0" encoding="utf-8"?>
<!DOCTYPE svg PUBLIC "-//W3C//DTD SVG 20010904//EN" "http://www.w3.org/TR/2001/REC-SVG-20010904/DTD/svg10.dtd">
<svg version="1.0" xmlns="http://www.w3.org/2000/svg" width="567px" height="567px" viewBox="0 0 567 567" preserveAspectRatio="xMidYMid meet">
 <g fill="#ffffff">
  <path d="M142.1 530.2 c-1.9 -0.9 -4.4 -3 -5.5 -4.5 -2 -2.7 -2.1 -4.3 -2.4 -35.2 l-0.3 -32.4 -32.7 -0.3 c-35.3 -0.3 -35.7 -0.4 -40.9 -6 -5.2 -5.5 -5.3 -6.8 -5.3 -48.8 0 -30.5 0.3 -39.8 1.4 -42.3 1.7 -4.3 7.6 -9.3 12.3 -10.6 2.4 -0.7 20.6 -1.1 49.1 -1.1 43.6 0 45.2 -0.1 45.2 -1.9 0 -1.6 -1.2 -2 -7.5 -3 -12.5 -1.8 -21.4 -7.9 -25.4 -17.1 -2.5 -5.7 -7 -24.2 -13.5 -54.5 -6 -28.1 -6.7 -32.6 -6.7 -40 l0 -6.3 -3.7 -0.6 c-5.4 -1 -15.8 -5.5 -22.9 -9.9 -15.4 -9.5 -28.7 -29.6 -30.9 -46.7 -0.2 -1.9 -0.6 -5 -0.9 -6.8 -0.2 -1.8 0 -7.1 0.6 -11.7 3.7 -33 29.5 -58.4 62.2 -61.4 l7.1 -0.6 1.2 -7 c1.3 -8 2.3 -10.4 7.6 -19.6 20.3 -35 63.6 -45.7 97.7 -24.1 6.8 4.3 17 14.5 20.1 20 2.7 4.7 2.8 4.7 7.4 2.8 15.7 -6.6 38.5 -5.7 55.1 2 12.3 5.7 23.9 16.8 31.2 29.6 5.9 10.4 7.4 16.8 7.4 32.1 0 7 0.4 12.7 0.7 12.7 0.4 0 2.3 -0.5 4.2 -1 5.3 -1.6 18.8 -1.3 25.4 0.5 8.9 2.4 15.4 6.2 22.6 13.5 10.3 10.2 15.2 21.6 15.3 35.6 0.1 6.2 0.2 6.4 4.9 11.1 l4.9 4.8 7.7 0 c9.5 0 16.8 2.5 22.8 7.8 7 6.2 11.4 16 11.4 25.6 0 6.5 -15.1 78.4 -18.4 87.9 -4.8 13.7 -15.2 20.7 -32.4 21.9 -6.9 0.5 -8.2 0.9 -8 2.2 0.3 1.4 6.1 1.7 56.8 2.1 39.1 0.3 57.3 0.8 59 1.6 1.4 0.7 3.8 2.4 5.3 3.8 5.6 5.2 5.7 6 5.7 49 0 25.5 -0.4 40.5 -1.1 42.3 -1.3 3.5 -5.4 7.9 -9.4 10.1 -2.6 1.5 -7.5 1.7 -35.7 2 l-32.8 0.3 0 31.2 c0 34.8 -0.2 36 -6.9 40.4 l-3.4 2.3 -151.1 0 c-141.9 0 -151.3 -0.1 -154.5 -1.8z m21.4 -17.4 c0.3 -1.8 1.4 -9.1 2.4 -16.1 1.1 -7.1 2.1 -13 2.3 -13.2 0.2 -0.2 3.2 7 6.8 16.1 6.4 16.2 6.5 16.4 9.5 16.4 3 0 3.2 -0.3 10 -16.5 3.8 -9.1 7 -16.3 7.1 -16.2 0.3 0.3 4.4 30.1 4.4 31.8 0 0.5 3.4 0.9 7.5 0.9 5.3 0 7.5 -0.4 7.5 -1.2 0 -2 -8 -55.2 -8.5 -56.5 -0.3 -0.9 -2.8 -1.3 -7.8 -1.3 l-7.3 0 -5.9 14.8 c-3.2 8.1 -6.1 15 -6.4 15.4 -0.3 0.4 -3.3 -6.2 -6.5 -14.7 l-5.8 -15.5 -7.4 0 c-6.8 0 -7.4 0.2 -7.9 2.3 -0.3 1.2 -2.3 13 -4.5 26.2 -2.2 13.2 -4.2 25.5 -4.6 27.3 l-0.6 3.2 7.5 0 7.6 0 0.6 -3.2z m80.5 -1.8 l1.8 -4.5 10.8 0 10.8 0 1.7 4.5 1.7 4.5 8.1 0.3 c4.4 0.2 8.1 0.1 8.1 -0.1 0 -0.2 -4.9 -13.4 -10.9 -29.3 l-10.9 -28.9 -8.3 0 -8.4 0 -11.2 29 c-6.2 16 -11.3 29.1 -11.3 29.3 0 0.2 3.7 0.2 8.1 0 l8.1 -0.3 1.8 -4.5z m65 -7.6 l0 -12.7 9.8 12.7 9.7 12.6 9.9 0 c9.3 0 9.8 -0.1 8.4 -1.7 -0.8 -1 -5.9 -7.2 -11.3 -13.8 -5.4 -6.6 -10.5 -12.8 -11.3 -13.7 -1.5 -1.8 -0.2 -3.5 20.6 -28 1.4 -1.7 1 -1.8 -7.9 -1.8 l-9.4 0 -9.3 12.1 -9.2 12.2 0 -12.2 0 -12.2 -7.7 0.3 -7.8 0.3 -0.3 29.3 -0.2 29.2 8 0 8 0 0 -12.6z m80 6.1 l0 -6.5 -9 0 -9 0 0 -5 0 -5 8.5 0 8.5 0 0 -6.5 0 -6.5 -8.5 0 -8.5 0 0 -5 0 -5 9 0 9 0 0 -6.5 0 -6.5 -16.7 0.2 -16.8 0.3 -0.3 29.3 -0.2 29.2 17 0 17 0 0 -6.5z m25.2 -4.2 l0.3 -10.8 6.9 10.8 6.8 10.7 9.5 0 c7.5 0 9.3 -0.3 8.6 -1.2 -0.5 -0.7 -4.7 -6.1 -9.2 -12.1 -7.1 -9.2 -8 -10.8 -6.4 -11.4 10 -3.6 13.8 -15.6 8.1 -25.5 -2.1 -3.5 -3.9 -5 -7.8 -6.7 -4.5 -1.9 -6.5 -2.1 -18.8 -1.9 l-13.7 0.3 -0.3 29.3 -0.2 29.2 8 0 7.9 0 0.3 -10.7z m-188.4 -75.5 c20.8 -9.9 23.1 -39 4.1 -52.8 -9.9 -7.1 -25.5 -7.7 -36.5 -1.4 -11.9 6.8 -17.9 22.2 -14 35.6 5.5 19 27.3 27.8 46.4 18.6z m125 0 c20.8 -9.9 23.1 -39 4.1 -52.8 -9.9 -7.1 -25.5 -7.7 -36.5 -1.4 -11.9 6.8 -17.9 22.2 -14 35.6 5.5 19 27.3 27.8 46.4 18.6z m56.7 0.5 c7.6 -4 10.5 -8.8 10.5 -17.6 0 -8.9 -4.6 -14 -15.8 -17.2 -5.1 -1.5 -9.2 -4.4 -9.2 -6.5 0 -1.9 4 -5 6.5 -5 1.4 0 4.4 0.9 6.6 1.9 l4 1.9 2.9 -5.8 3 -5.9 -5.3 -1.9 c-10.6 -3.9 -18.5 -3.6 -25.2 0.9 -8.8 6.1 -10.8 20.6 -3.7 27 1.6 1.5 5.8 3.6 9.4 4.8 7.9 2.6 10.8 4.6 10.8 7.3 0 6 -8.3 7.8 -15.5 3.3 -2.2 -1.3 -4.3 -2.5 -4.7 -2.5 -0.4 0 -2.1 2.6 -3.7 5.9 l-3 5.8 4.5 2.3 c7 3.5 9.4 4 16.9 3.6 4.6 -0.2 8.4 -1 11 -2.3z m-319.7 -8.4 l0.3 -9.7 8.7 -0.4 c9.9 -0.5 13.4 -2 17.2 -7.6 2.2 -3.1 2.5 -4.7 2.5 -11.7 0 -7.4 -0.3 -8.5 -2.9 -11.9 -4.8 -6.4 -8.8 -7.6 -25.8 -7.6 l-14.8 0 0 29.5 0 29.6 7.3 -0.3 7.2 -0.3 0.3 -9.6z m53.2 -1.2 l0.5 -10.8 7.2 11.1 7.2 11 9.1 0 c4.9 0 9 -0.3 9 -0.6 0 -0.3 -4 -5.8 -8.9 -12.1 l-8.9 -11.6 4.1 -2.1 c5.6 -2.8 8.2 -7.5 8.1 -14.6 0 -6.6 -2.1 -10.9 -7.1 -14.7 -3.6 -2.8 -3.9 -2.8 -19.5 -3.1 l-15.8 -0.4 0 29.7 0 29.6 7.3 -0.3 7.2 -0.3 0.5 -10.8z m126.8 1.2 l0.3 -9.7 8.7 -0.4 c9.9 -0.5 13.4 -2 17.2 -7.6 2.2 -3.1 2.5 -4.7 2.5 -11.7 0 -7.4 -0.3 -8.5 -2.9 -11.9 -4.8 -6.4 -8.8 -7.6 -25.8 -7.6 l-14.8 0 0 29.5 0 29.6 7.3 -0.3 7.2 -0.3 0.3 -9.6z m172.5 4.4 l2 -5.3 10.3 0 10.4 0 1.5 3.8 c2.7 6.7 2.6 6.7 10.9 7 4.2 0.2 7.6 -0.1 7.6 -0.5 0 -0.4 -4.8 -13.7 -10.7 -29.5 l-10.8 -28.8 -8.5 0 -8.5 0 -11.1 29 c-6.1 15.9 -10.9 29.2 -10.6 29.5 0.4 0.3 4 0.4 8 0.3 l7.5 -0.3 2 -5.2z m82.7 -0.8 l0 -6.5 -9 0 -9 0 0 -23 0 -23 -7.5 0 -7.5 0 0 29.5 0 29.5 16.5 0 16.5 0 0 -6.5z m-292.1 -73.5 c2.4 -1.7 3.6 -3.8 5.5 -10.3 2.8 -9.3 11.3 -42.7 12.7 -50 1 -5.7 -0.3 -9.8 -4.5 -13.7 -2.7 -2.4 -3.2 -2.5 -22.1 -3 -13.3 -0.3 -19.8 -0.9 -20.6 -1.7 -1 -1 -0.9 -3.5 0.1 -11.5 0.8 -5.7 1.4 -12.3 1.4 -14.7 l0.1 -4.4 -8.5 -2.8 c-4.7 -1.6 -8.6 -2.9 -8.7 -2.9 -0.1 0 -1.1 -1 -2.3 -2.2 -3.6 -3.9 -2.1 -12.5 2.7 -14.7 3.2 -1.5 5.2 -1.4 12.9 0.5 3.6 0.9 6.7 1.4 7 1.1 0.8 -0.8 -2.1 -5.9 -4.9 -8.6 -3.5 -3.2 -10.3 -3.9 -16.1 -1.7 -8.7 3.3 -13.7 11.2 -18.9 29.6 -1.7 6.3 -2.1 10.3 -2.1 24.5 0 18.9 0.8 22.6 5.7 28.2 5.2 5.9 8 6.6 29.4 7.2 10.5 0.3 19.4 0.9 19.7 1.2 0.4 0.3 -1.1 7.8 -3.3 16.5 -5.2 21.2 -5.7 25.4 -3.6 29.3 3.6 7 11.8 8.8 18.4 4.1z m129.8 1.3 c4 -1.9 7.3 -6.6 7.3 -10.4 0 -1.4 -1.6 -8.9 -3.5 -16.8 -3.9 -15.8 -4.3 -21.2 -1.9 -23.2 1.1 -0.9 6.9 -1.5 19.4 -2 19.8 -0.7 23.4 -1.8 27.6 -8.2 4.2 -6.4 4.9 -10.4 4.8 -26.7 -0.2 -35.5 -10.7 -55.9 -28.6 -56 -8.4 0 -14 7.1 -14 18 0 5.6 1 11 2.2 11 0.4 0 1.6 -3.2 2.5 -7.1 2.3 -9.5 4.9 -12.4 10.9 -12.4 6.5 0 9.1 2.8 9 9.8 -0.1 7.8 -8.2 39.3 -10.8 42.2 -2.2 2.5 -10.8 5.5 -28.5 10 -13.3 3.3 -16.2 3.3 -20.5 -0.6 l-3.5 -3 -1.6 2.4 c-3.2 5 -2.8 8.4 3.8 34.8 3.6 14.1 7.5 28 8.8 30.9 3.5 8.3 9.3 10.8 16.6 7.3z m-155.9 -38.2 c0.8 -0.4 1.2 -1.9 1 -3.2 -0.4 -3.1 -3 -3.6 -18.1 -3.8 -14.5 -0.1 -19.9 -1.4 -23.2 -5.3 -3 -3.6 -5 -10.2 -11.5 -39.1 -7.7 -34.1 -8.2 -35.4 -12.8 -32.2 -2.3 1.7 -2.5 0.7 5.4 37.5 7.4 34.9 9.9 45.1 11.5 46.1 1.8 1.1 46 1.1 47.7 0z m217.5 -0.5 c0.7 -0.8 4.1 -13.9 7.5 -29.3 9.2 -42 10.8 -51.1 9.6 -53.1 -1.3 -2 -3.4 -2.5 -5.2 -1.3 -0.8 0.5 -4.8 16.3 -9.5 37.7 -4.5 20.3 -8.6 37.5 -9 38.2 -0.6 0.9 -5.7 1.2 -19.5 1.2 -22.1 0 -23.2 0.2 -23.2 4 0 1.6 0.6 3.1 1.3 3.3 0.6 0.3 11.4 0.6 23.9 0.6 18.2 0.1 22.9 -0.2 24.1 -1.3z m-67.3 -34.1 c5.2 -1.4 13.9 -3.9 19.3 -5.6 9.2 -2.8 10 -3.3 11.3 -6.5 2.4 -5.8 9.4 -35.5 9.4 -40 0 -5.1 -2.5 -7.4 -8.1 -7.4 -5 0 -6.3 2.2 -10.4 17.8 -5.1 19.8 -5.1 19.7 -16 22.7 -22.7 6.3 -24.5 7.2 -24.5 12.9 0 3.2 4.6 8.6 7.3 8.6 1.2 0 6.5 -1.1 11.7 -2.5z m-17 -13.2 c1.9 -1.1 6.4 -2.9 10 -3.9 6 -1.7 6.3 -1.9 3.5 -2.5 -3.9 -0.9 -114.3 -0.9 -121.4 -0.1 -3.5 0.5 -5.8 1.3 -6.5 2.5 -1.6 2.5 0.4 5.1 4.5 5.8 1.9 0.4 26.6 0.6 54.9 0.5 50.9 -0.1 51.5 -0.1 55 -2.3z m-71.7 -11.5 c5.3 -2.8 6.3 -8.4 2.1 -11.7 -3.1 -2.4 -17.3 -7.2 -44.9 -15 -34.6 -9.7 -36.2 -9.9 -39.2 -3.6 -1.4 3 -1.5 3.8 -0.3 5.9 0.7 1.4 2.7 3.2 4.4 4 6.5 3.1 69.4 21.4 73.9 21.5 1 0.1 2.8 -0.4 4 -1.1z m60.1 -1.4 c0.9 -0.3 1.6 -1.4 1.6 -2.4 0 -2.7 -1.8 -3 -18.3 -3.1 -17.2 0 -21.1 -0.9 -24.2 -5.5 -1.2 -1.7 -3.6 -8.7 -5.4 -15.5 -5.3 -20.3 -6 -22.1 -8.4 -21.7 -3.2 0.4 -2.8 4.1 3.2 27.7 2.8 11.2 5.1 20.5 5.1 20.7 0 0.7 44.7 0.4 46.4 -0.2z m-102.4 -49 c15.7 -8.6 15 -31.1 -1.2 -39.5 -4.7 -2.4 -14.6 -2.6 -19.1 -0.3 -4.1 2.1 -9.5 7.1 -11.3 10.6 -2.2 4.2 -1.8 15.3 0.7 20.5 5.4 11.1 19.3 15 30.9 8.7z m148.7 2.1 c10 -3 17.5 -14.9 15.6 -24.7 -2.1 -11.4 -11 -18.8 -22.3 -18.8 -6.8 0 -10.8 1.6 -15.8 6.4 -4.4 4.1 -6.4 8.9 -6.4 15.6 0 9.7 5.7 18.2 14.4 21.3 5.6 2 8.3 2 14.5 0.2z m-234.9 -13.5 c4.6 -2.3 8.8 -5.5 13.2 -10 l6.5 -6.8 9.5 1.3 c5.2 0.7 9.7 1.1 9.9 0.9 0.2 -0.1 -2.8 -2.3 -6.7 -4.8 -3.8 -2.4 -7.4 -5 -7.8 -5.8 -0.5 -0.7 -1.4 -6.3 -2 -12.3 -0.7 -7.6 -1.7 -12.5 -3.2 -15.5 -6.3 -13 -20.1 -22.2 -34.3 -22.9 -31.3 -1.4 -52 30.2 -37.9 57.9 2.8 5.5 9.9 13 15.4 16.5 6.8 4.2 12.7 5.6 21.9 5.2 7.4 -0.4 9.8 -1 15.5 -3.7z m110.2 -30 c3.7 -2.7 7.6 -5 8.7 -5 1.1 0 4.7 1.2 7.9 2.7 5.2 2.4 7.1 2.7 16.5 2.7 9.7 0 11 -0.2 16.4 -2.9 7.7 -3.9 16.4 -12.6 20.1 -20.1 2.6 -5.3 2.8 -6.8 2.8 -16.5 0 -10.1 -0.1 -10.9 -3.4 -17.3 -4.3 -8.5 -12.7 -16.5 -20.7 -19.8 -4.7 -1.9 -7.7 -2.3 -15.8 -2.3 -8.7 0 -10.7 0.3 -15.5 2.6 -22 10.3 -30.2 35.4 -18.7 57.3 l3.1 5.9 -4.7 8.9 c-2.5 4.8 -4.4 8.8 -4.1 8.8 0.4 0 3.7 -2.2 7.4 -5z m-41.1 -20.6 l-1.1 -8.9 3.8 -3 c8.8 -6.9 14.5 -13 17 -18.2 11.4 -24.2 -3.3 -52.3 -30 -57.2 -16.8 -3.1 -34.5 6.4 -42.8 23 -2.6 4.9 -2.8 6.4 -2.8 16.5 0 10.4 0.2 11.5 3.1 17.3 3.6 7.2 10.8 15 16.7 18 5.3 2.7 14.5 5.1 19.5 5.1 5.6 0 7 1.1 12.3 9.5 2.5 4.2 4.8 7.4 5 7.2 0.2 -0.2 -0.1 -4.4 -0.7 -9.3z"/>
  <path d="M252.9 486.3 c1.6 -4.3 3 -8.5 3.3 -9.3 0.3 -0.8 1.7 2.1 3.2 6.5 1.5 4.4 3 8.6 3.3 9.3 0.3 0.9 -1.2 1.2 -6 1.2 l-6.6 0 2.8 -7.7z"/>
  <path d="M414 476 l0 -7 3.5 0 c2.5 0 4.4 0.8 6 2.5 3 3 3.1 5.4 0.4 8.9 -1.6 2 -2.9 2.6 -6 2.6 l-3.9 0 0 -7z"/>
  <path d="M204.7 417.6 c-4.9 -1.8 -6.4 -3.2 -8.8 -7.7 -4.1 -8.1 -1 -17.6 7.1 -21.6 7.9 -4 15.5 -2.4 20.6 4.3 2.5 3.2 2.9 4.7 2.9 9.8 0 4.8 -0.5 6.8 -2.3 9.4 -4.2 5.9 -12.6 8.4 -19.5 5.8z"/>
  <path d="M329.7 417.6 c-4.9 -1.8 -6.4 -3.2 -8.8 -7.7 -4.1 -8.1 -1 -17.6 7.1 -21.6 7.9 -4 15.5 -2.4 20.6 4.3 2.5 3.2 2.9 4.7 2.9 9.8 0 4.8 -0.5 6.8 -2.3 9.4 -4.2 5.9 -12.6 8.4 -19.5 5.8z"/>
  <path d="M88 392.5 c0 -7.2 0.1 -7.5 2.4 -7.5 5.8 0 8.8 1.3 10.1 4.3 2.6 6.2 -1.2 10.7 -9.1 10.7 l-3.4 0 0 -7.5z"/>
  <path d="M141 392 l0 -7 4 0 c7.2 0 10.4 6.6 5.5 11.5 -1.6 1.7 -3.5 2.5 -6 2.5 l-3.5 0 0 -7z"/>
  <path d="M268 392.5 c0 -7.2 0.1 -7.5 2.4 -7.5 5.8 0 8.8 1.3 10.1 4.3 2.6 6.2 -1.2 10.7 -9.1 10.7 l-3.4 0 0 -7.5z"/>
  <path d="M447 409.2 c0 -2.5 5.9 -17.5 6.4 -16.2 1.6 4.2 5.6 15.8 5.6 16.4 0 0.3 -2.7 0.6 -6 0.6 -3.3 0 -6 -0.4 -6 -0.8z"/>
  <path d="M112.4 190.6 c-8.6 -2.7 -16.3 -9.5 -20.5 -18.3 -1.9 -4 -2.3 -6.4 -2.3 -13.8 0.1 -9.9 1.2 -13.4 6.4 -20 8.5 -10.7 18.6 -14.7 31.9 -12.6 8.9 1.3 14.3 4.3 20 10.7 6 6.9 8.4 14 7.9 24 -0.4 6.9 -0.9 9 -3.9 14.5 -6 10.9 -16.5 17 -29.3 16.8 -3.3 0 -7.9 -0.6 -10.2 -1.3z m10.6 -12 c0 -2.4 2.2 -3.1 3.6 -1.2 2 2.8 5.8 1.7 6.2 -1.7 0.3 -2.2 0.8 -2.8 2.5 -2.7 1.2 0.1 2.7 0.2 3.4 0.1 1.7 -0.2 2.6 -4 1.3 -5.6 -1.4 -1.7 -0.3 -3.8 1.6 -3.1 0.9 0.4 1.8 -0.4 2.5 -2.1 0.9 -2.3 0.7 -3 -1.3 -4.5 -2.2 -1.8 -2.3 -1.9 -0.4 -3.3 2.8 -2.1 0.8 -6.5 -3 -6.5 -2.3 0 -2.5 -0.3 -1.9 -2.8 0.8 -3.8 -1.7 -6.2 -4.6 -4.4 -2.4 1.5 -3.9 0.8 -3.9 -1.8 0 -1.1 -1 -2 -2.7 -2.5 -2.6 -0.6 -4.3 0.5 -5.7 3.9 -0.4 1 -2.1 -0.6 -2.9 -2.8 -0.7 -2 -4.8 0.7 -5.4 3.5 -0.5 2.6 -0.9 2.9 -3.3 2.4 -2.1 -0.5 -2.9 -0.1 -3.8 1.9 -0.7 1.6 -0.8 2.8 -0.2 3.1 1.8 1.1 1 3.4 -1.2 3.7 -3.3 0.4 -3.7 4.6 -0.6 7 2.1 1.7 2.2 1.9 0.6 2.9 -3.4 1.9 -1.5 6.9 2.5 6.9 1.5 0 1.8 0.5 1.3 2.4 -0.8 3.2 2.6 6.5 4.9 4.6 2 -1.6 4.5 -0.6 4.5 2 0 1.6 0.7 2 3 2 1.9 0 3 -0.5 3 -1.4z"/>
  <path d="M117.7 169.5 c-12.5 -6.5 -7.7 -24.6 6.2 -23.2 12.4 1.3 15 18.5 3.6 23.3 -4.3 1.8 -6.3 1.8 -9.8 -0.1z m7.7 -6.1 c3 -1.1 3.8 -4.1 2.1 -7.4 -2.8 -5.4 -10.4 -3.6 -10.5 2.4 0 4.1 4.3 6.6 8.4 5z"/>
  <path d="M268.8 158.6 c-9.7 -3.8 -18.2 -12.5 -21.4 -22 -2.1 -6.3 -1.5 -17.3 1.4 -23.8 2.9 -6.6 10.2 -14.1 16.5 -16.9 7.2 -3.3 21 -3.4 27.9 -0.2 6.4 2.9 13.2 9.5 16.3 15.6 2.2 4.5 2.5 6.3 2.5 15.6 0 9.9 -0.2 10.9 -3 15.7 -3.5 6.1 -9.8 11.9 -16 14.6 -5.9 2.6 -19.1 3.3 -24.2 1.4z m14.5 -14.6 c4.9 0 11.7 -6.3 11.7 -10.7 0 -4.1 -2.8 -8 -7 -10 -3.5 -1.6 -3.9 -2.2 -4 -5.3 0 -1.9 0.5 -4.2 1 -5 0.9 -1.2 1.5 -0.9 3.9 2 2.4 2.9 3.1 3.2 3.6 1.9 0.3 -0.9 0.5 -3.4 0.3 -5.5 -0.3 -3.4 -0.6 -3.9 -3.1 -4.2 -2 -0.2 -3.1 -1.1 -3.8 -3 -1 -2.6 -1.1 -2.6 -2.5 -0.8 -0.8 1.1 -1.4 2.3 -1.4 2.8 0 0.4 -0.9 0.8 -2 0.8 -2.9 0 -7.6 2.6 -9.4 5.2 -0.9 1.2 -1.6 3.9 -1.6 5.9 0 3.8 0.2 4.1 7.8 9.7 2.1 1.6 2.2 2.1 1.3 6 -0.5 2.4 -1.2 4.6 -1.5 4.9 -0.8 0.9 -3.6 -1.7 -5.3 -5 -1.3 -2.6 -1.7 -2.8 -2.5 -1.4 -0.5 1 -0.8 3.9 -0.6 6.5 0.3 4.5 0.4 4.7 3.6 5 2.5 0.3 3.5 1 4.3 3 l1.1 2.7 2.2 -2.7 c1.2 -1.6 3 -2.8 3.9 -2.8z"/>
  <path d="M281.3 135.8 c0.8 -6.5 1.7 -7.4 5 -4.8 3.4 2.7 3.4 5.3 0.1 7.9 -4.6 3.6 -5.8 2.9 -5.1 -3.1z"/>
  <path d="M276 118.4 c-1.9 -2.2 -0.1 -6.8 2.8 -7.2 1.9 -0.3 2.2 0.1 2.2 2.6 0 5.9 -2.3 8 -5 4.6z"/>
  <path d="M179.1 129 c-7.3 -2.7 -13.7 -8.3 -17.8 -15.6 -3 -5.4 -3.3 -6.6 -3.3 -14.9 0 -7.9 0.4 -9.7 2.9 -15 3.4 -7 9.8 -13.6 16.1 -16.4 3.5 -1.6 6.6 -2.1 14.1 -2.1 8.2 0 10.2 0.3 14.6 2.6 6.8 3.3 13 9.6 16 16.2 2 4.2 2.5 7 2.5 13.7 0.1 7.2 -0.3 9.2 -2.7 14.1 -5.8 11.9 -16.2 18.6 -29.5 19.1 -5.6 0.3 -8.9 -0.2 -12.9 -1.7z m18 -11.1 c7.6 -2.3 13.8 -9.6 15.2 -17.9 0.9 -4.9 -0.5 -10.4 -2.6 -10.8 -0.9 -0.2 -5.6 1.8 -10.3 4.3 -6.2 3.4 -8.8 4.4 -9.4 3.5 -0.4 -0.6 -1.3 -5.9 -2 -11.6 -1.4 -11.9 -1.4 -11.9 -9.7 -6.2 -12 8.2 -12.9 25.7 -1.8 34.5 6.3 5 13.1 6.4 20.6 4.2z m3 -27.6 c4.6 -2.5 8.6 -4.8 8.8 -5 0.3 -0.2 -0.6 -1.5 -2 -2.9 -3 -3.3 -11 -7.4 -14.4 -7.4 -2.2 0 -2.5 0.4 -2.5 3.3 0 3.9 1.2 16.7 1.5 16.7 0.2 0 4 -2.1 8.6 -4.7z"/>
 </g>
 <g fill="#2f5597">
  <path d="M148.4 512.8 c0.4 -1.8 2.4 -14.1 4.6 -27.3 2.2 -13.2 4.2 -25 4.5 -26.2 0.5 -2.1 1.1 -2.3 7.9 -2.3 l7.4 0 5.8 15.5 c3.2 8.5 6.2 15.1 6.5 14.7 0.3 -0.4 3.2 -7.3 6.4 -15.4 l5.9 -14.8 7.3 0 c5 0 7.5 0.4 7.8 1.3 0.5 1.3 8.5 54.5 8.5 56.5 0 0.8 -2.2 1.2 -7.5 1.2 -4.1 0 -7.5 -0.4 -7.5 -0.9 0 -1.7 -4.1 -31.5 -4.4 -31.8 -0.1 -0.1 -3.3 7.1 -7.1 16.2 -6.8 16.2 -7 16.5 -10 16.5 -3 0 -3.1 -0.2 -9.5 -16.4 -3.6 -9.1 -6.6 -16.3 -6.8 -16.1 -0.2 0.2 -1.2 6.1 -2.3 13.2 -1 7 -2.1 14.3 -2.4 16.1 l-0.6 3.2 -7.6 0 -7.5 0 0.6 -3.2z"/>
  <path d="M226 515.8 c0 -0.2 5.1 -13.3 11.3 -29.3 l11.2 -29 8.4 0 8.3 0 10.9 28.9 c6 15.9 10.9 29.1 10.9 29.3 0 0.2 -3.7 0.3 -8.1 0.1 l-8.1 -0.3 -1.7 -4.5 -1.7 -4.5 -10.8 0 -10.8 0 -1.8 4.5 -1.8 4.5 -8.1 0.3 c-4.4 0.2 -8.1 0.2 -8.1 0z m36.7 -23 c-0.3 -0.7 -1.8 -4.9 -3.3 -9.3 -1.5 -4.4 -2.9 -7.3 -3.2 -6.5 -0.3 0.8 -1.7 5 -3.3 9.3 l-2.8 7.7 6.6 0 c4.8 0 6.3 -0.3 6 -1.2z"/>
  <path d="M293.2 486.8 l0.3 -29.3 7.8 -0.3 7.7 -0.3 0 12.2 0 12.2 9.2 -12.2 9.3 -12.1 9.4 0 c8.9 0 9.3 0.1 7.9 1.8 -20.8 24.5 -22.1 26.2 -20.6 28 0.8 0.9 5.9 7.1 11.3 13.7 5.4 6.6 10.5 12.8 11.3 13.8 1.4 1.6 0.9 1.7 -8.4 1.7 l-9.9 0 -9.7 -12.6 -9.8 -12.7 0 12.7 0 12.6 -8 0 -8 0 0.2 -29.2z"/>
  <path d="M355.2 486.8 l0.3 -29.3 16.8 -0.3 16.7 -0.2 0 6.5 0 6.5 -9 0 -9 0 0 5 0 5 8.5 0 8.5 0 0 6.5 0 6.5 -8.5 0 -8.5 0 0 5 0 5 9 0 9 0 0 6.5 0 6.5 -17 0 -17 0 0.2 -29.2z"/>
  <path d="M398.2 486.8 l0.3 -29.3 13.7 -0.3 c12.3 -0.2 14.3 0 18.8 1.9 14.1 6.1 13.9 27.1 -0.3 32.2 -1.6 0.6 -0.7 2.2 6.4 11.4 4.5 6 8.7 11.4 9.2 12.1 0.7 0.9 -1.1 1.2 -8.6 1.2 l-9.5 0 -6.8 -10.7 -6.9 -10.8 -0.3 10.8 -0.3 10.7 -7.9 0 -8 0 0.2 -29.2z m25.7 -6.4 c2.7 -3.5 2.6 -5.9 -0.4 -8.9 -1.6 -1.7 -3.5 -2.5 -6 -2.5 l-3.5 0 0 7 0 7 3.9 0 c3.1 0 4.4 -0.6 6 -2.6z"/>
  <path d="M203.9 433 c-23.9 -4.1 -33.9 -33.1 -17.9 -51.4 10.4 -11.8 31 -13.9 43.9 -4.6 19 13.8 16.7 42.9 -4.1 52.8 -6.9 3.3 -14.6 4.5 -21.9 3.2z m15.1 -16.5 c5 -2.6 7.5 -7.2 7.5 -14.1 0 -5.1 -0.4 -6.6 -2.9 -9.8 -5.1 -6.7 -12.7 -8.3 -20.6 -4.3 -8.1 4 -11.2 13.5 -7.1 21.6 2.4 4.5 3.9 5.9 8.8 7.7 4.2 1.6 10 1.1 14.3 -1.1z"/>
  <path d="M328.9 433 c-23.9 -4.1 -33.9 -33.1 -17.9 -51.4 10.4 -11.8 31 -13.9 43.9 -4.6 19 13.8 16.7 42.9 -4.1 52.8 -6.9 3.3 -14.6 4.5 -21.9 3.2z m15.1 -16.5 c5 -2.6 7.5 -7.2 7.5 -14.1 0 -5.1 -0.4 -6.6 -2.9 -9.8 -5.1 -6.7 -12.7 -8.3 -20.6 -4.3 -8.1 4 -11.2 13.5 -7.1 21.6 2.4 4.5 3.9 5.9 8.8 7.7 4.2 1.6 10 1.1 14.3 -1.1z"/>
  <path d="M386.8 432.1 c-1.5 -0.5 -4.7 -1.9 -7.2 -3.1 l-4.5 -2.3 3 -5.8 c1.6 -3.3 3.3 -5.9 3.7 -5.9 0.4 0 2.5 1.2 4.7 2.5 7.2 4.5 15.5 2.7 15.5 -3.3 0 -2.7 -2.9 -4.7 -10.8 -7.3 -3.6 -1.2 -7.8 -3.3 -9.4 -4.8 -7.1 -6.4 -5.1 -20.9 3.7 -27 6.7 -4.5 14.6 -4.8 25.2 -0.9 l5.3 1.9 -3 5.9 -2.9 5.8 -4 -1.9 c-2.2 -1 -5.2 -1.9 -6.6 -1.9 -2.5 0 -6.5 3.1 -6.5 5 0 2.1 4.1 5 9.2 6.5 11.2 3.2 15.8 8.3 15.8 17.2 0 8.8 -2.9 13.6 -10.5 17.6 -4.4 2.2 -16.1 3.3 -20.7 1.8z"/>
  <path d="M73 402.5 l0 -29.5 14.8 0 c17 0 21 1.2 25.8 7.6 2.6 3.4 2.9 4.5 2.9 11.9 0 7 -0.3 8.6 -2.5 11.7 -3.8 5.6 -7.3 7.1 -17.2 7.6 l-8.7 0.4 -0.3 9.7 -0.3 9.6 -7.2 0.3 -7.3 0.3 0 -29.6z m24.3 -3.4 c5.9 -2.3 4.9 -12.2 -1.3 -13.5 -7.9 -1.5 -8 -1.4 -8 6.9 l0 7.5 3.4 0 c1.9 0 4.6 -0.4 5.9 -0.9z"/>
  <path d="M126 402.5 l0 -29.7 15.8 0.4 c15.6 0.3 15.9 0.3 19.5 3.1 5 3.8 7.1 8.1 7.1 14.7 0.1 7.1 -2.5 11.8 -8.1 14.6 l-4.1 2.1 8.9 11.6 c4.9 6.3 8.9 11.8 8.9 12.1 0 0.3 -4.1 0.6 -9 0.6 l-9.1 0 -7.2 -11 -7.2 -11.1 -0.5 10.8 -0.5 10.8 -7.2 0.3 -7.3 0.3 0 -29.6z m24.5 -6 c4.9 -4.9 1.7 -11.5 -5.5 -11.5 l-4 0 0 7 0 7 3.5 0 c2.5 0 4.4 -0.8 6 -2.5z"/>
  <path d="M253 402.5 l0 -29.5 14.8 0 c17 0 21 1.2 25.8 7.6 2.6 3.4 2.9 4.5 2.9 11.9 0 7 -0.3 8.6 -2.5 11.7 -3.8 5.6 -7.3 7.1 -17.2 7.6 l-8.7 0.4 -0.3 9.7 -0.3 9.6 -7.2 0.3 -7.3 0.3 0 -29.6z m24.3 -3.4 c5.9 -2.3 4.9 -12.2 -1.3 -13.5 -7.9 -1.5 -8 -1.4 -8 6.9 l0 7.5 3.4 0 c1.9 0 4.6 -0.4 5.9 -0.9z"/>
  <path d="M422.8 431.5 c-0.3 -0.3 4.5 -13.6 10.6 -29.5 l11.1 -29 8.5 0 8.5 0 10.8 28.8 c5.9 15.8 10.7 29.1 10.7 29.5 0 0.4 -3.4 0.7 -7.6 0.5 -8.3 -0.3 -8.2 -0.3 -10.9 -7 l-1.5 -3.8 -10.4 0 -10.3 0 -2 5.3 -2 5.2 -7.5 0.3 c-4 0.1 -7.6 0 -8 -0.3z m36.2 -22.1 c0 -0.6 -4 -12.2 -5.6 -16.4 -0.5 -1.3 -6.4 13.7 -6.4 16.2 0 0.4 2.7 0.8 6 0.8 3.3 0 6 -0.3 6 -0.6z"/>
  <path d="M490 402.5 l0 -29.5 7.5 0 7.5 0 0 23 0 23 9 0 9 0 0 6.5 0 6.5 -16.5 0 -16.5 0 0 -29.5z"/>
  <path d="M217.3 353.1 c-1.8 -1.1 -3.9 -3.4 -4.8 -5.2 -2.1 -3.9 -1.6 -8.1 3.6 -29.3 2.2 -8.7 3.7 -16.2 3.3 -16.5 -0.3 -0.3 -9.2 -0.9 -19.7 -1.2 -21.4 -0.6 -24.2 -1.3 -29.4 -7.2 -4.9 -5.6 -5.7 -9.3 -5.7 -28.2 0 -17.9 0.9 -23.3 6.4 -37.9 7 -18.4 27.1 -23.8 34.7 -9.3 0.8 1.6 1.2 3.1 0.9 3.4 -0.3 0.3 -3.4 -0.2 -7 -1.1 -7.7 -1.9 -9.7 -2 -12.9 -0.5 -4.8 2.2 -6.3 10.8 -2.7 14.7 1.2 1.2 2.2 2.2 2.3 2.2 0.1 0 4 1.3 8.7 2.9 l8.5 2.8 -0.1 4.4 c0 2.4 -0.6 9 -1.4 14.7 -1 8 -1.1 10.5 -0.1 11.5 0.8 0.8 7.3 1.4 20.6 1.7 18.9 0.5 19.4 0.6 22.1 3 4.2 3.9 5.5 8 4.5 13.7 -1.4 7.3 -9.9 40.7 -12.7 50 -1.9 6.5 -3.1 8.6 -5.5 10.3 -4.3 3.1 -9.7 3.6 -13.6 1.1z"/>
  <path d="M349.4 353.1 c-4.4 -2.7 -6.7 -8.8 -14.1 -38 -6.6 -26.4 -7 -29.8 -3.8 -34.8 l1.6 -2.4 3.5 3 c4.3 3.9 7.2 3.9 20.5 0.6 17.7 -4.5 26.3 -7.5 28.5 -10 2.6 -2.9 10.7 -34.4 10.8 -42.2 0.1 -7 -2.5 -9.8 -9 -9.8 -6 0 -8.6 2.9 -10.9 12.4 -0.9 3.9 -2.1 7.1 -2.5 7.1 -1.2 0 -2.2 -5.4 -2.2 -11 0 -6.8 1.8 -11.4 5.8 -15 2.8 -2.4 4.3 -3 8.2 -3 17.9 0.1 28.4 20.5 28.6 56 0.1 16.3 -0.6 20.3 -4.8 26.7 -4.2 6.4 -7.8 7.5 -27.6 8.2 -12.5 0.5 -18.3 1.1 -19.4 2 -2.4 2 -2 7.4 1.9 23.2 1.9 7.9 3.5 15.4 3.5 16.8 0 3.8 -3.3 8.5 -7.3 10.4 -4.5 2.2 -7.5 2.1 -11.3 -0.2z"/>
  <path d="M157.1 315.1 c-1.6 -1 -4.1 -11.2 -11.5 -46.1 -7.9 -36.8 -7.7 -35.8 -5.4 -37.5 4.6 -3.2 5.1 -1.9 12.8 32.2 6.5 28.9 8.5 35.5 11.5 39.1 3.3 3.9 8.7 5.2 23.2 5.3 15.1 0.2 17.7 0.7 18.1 3.8 0.2 1.3 -0.2 2.8 -1 3.2 -1.7 1.1 -45.9 1.1 -47.7 0z"/>
  <path d="M374.3 315.3 c-0.7 -0.2 -1.3 -1.7 -1.3 -3.3 0 -3.8 1.1 -4 23.2 -4 13.8 0 18.9 -0.3 19.5 -1.2 0.4 -0.7 4.5 -17.9 9 -38.2 4.7 -21.4 8.7 -37.2 9.5 -37.7 1.8 -1.2 3.9 -0.7 5.2 1.3 1.2 2 -0.4 11.1 -9.6 53.1 -3.4 15.4 -6.8 28.5 -7.5 29.3 -1.2 1.1 -5.9 1.4 -24.1 1.3 -12.5 0 -23.3 -0.3 -23.9 -0.6z"/>
  <path d="M338.6 279.9 c-2.7 -3.2 -3.3 -6.7 -1.6 -9.9 0.9 -1.7 7.2 -4 23.5 -8.5 10.9 -3 10.9 -2.9 16 -22.7 4.1 -15.6 5.4 -17.8 10.4 -17.8 5.6 0 8.1 2.3 8.1 7.4 0 4.5 -7 34.2 -9.4 40 -1.3 3.2 -2.1 3.7 -11.3 6.5 -14.1 4.3 -28.5 8.1 -31 8.1 -1.1 0 -3.3 -1.4 -4.7 -3.1z"/>
  <path d="M228.1 269.1 c-4.1 -0.7 -6.1 -3.3 -4.5 -5.8 0.7 -1.2 3 -2 6.5 -2.5 7.1 -0.8 117.5 -0.8 121.4 0.1 2.8 0.6 2.5 0.8 -3.5 2.5 -3.6 1 -8.1 2.8 -10 3.9 -3.5 2.2 -4.1 2.2 -55 2.3 -28.3 0.1 -53 -0.1 -54.9 -0.5z"/>
  <path d="M242.5 251.9 c-22.5 -6.1 -50 -14.6 -54.1 -16.5 -1.7 -0.8 -3.7 -2.6 -4.4 -4 -1.2 -2.1 -1.1 -2.9 0.3 -5.9 3 -6.3 4.6 -6.1 39.2 3.6 27.6 7.8 41.8 12.6 44.9 15 4.2 3.3 3.2 8.9 -2.1 11.7 -3.2 1.7 -4 1.6 -23.8 -3.9z"/>
  <path d="M280 254.6 c0 -0.2 -2.3 -9.5 -5.1 -20.7 -6 -23.6 -6.4 -27.3 -3.2 -27.7 2.4 -0.4 3.1 1.4 8.4 21.7 1.8 6.8 4.2 13.8 5.4 15.5 3.1 4.6 7 5.5 24.2 5.5 16.5 0.1 18.3 0.4 18.3 3.1 0 1 -0.7 2.1 -1.6 2.4 -1.7 0.6 -46.4 0.9 -46.4 0.2z"/>
  <path d="M205.6 207.5 c-9.9 -3.8 -14.6 -10.8 -14.6 -21.9 0 -7.5 1.2 -10.6 6.2 -15.2 5 -4.8 9 -6.4 15.8 -6.4 18.4 0 28.9 20.1 18.2 35.1 -5.3 7.5 -17.4 11.5 -25.6 8.4z"/>
  <path d="M358.2 207.3 c-8.7 -3.1 -14.4 -11.6 -14.4 -21.3 0 -6.7 2 -11.5 6.4 -15.6 5 -4.8 9 -6.4 15.8 -6.4 19.9 0 29.8 22.7 16.2 37.2 -6.7 7.2 -15 9.3 -24 6.1z"/>
  <path d="M108.4 196.2 c-18.8 -7.1 -30.3 -25.4 -27.4 -43.7 3.4 -21.5 20.3 -35.3 41.9 -34.4 14.2 0.7 28 9.9 34.3 22.9 1.5 3 2.5 7.9 3.2 15.5 0.6 6 1.5 11.6 2 12.3 0.4 0.8 4 3.4 7.8 5.8 3.9 2.5 6.9 4.7 6.7 4.8 -0.2 0.2 -4.7 -0.2 -9.9 -0.9 l-9.5 -1.3 -6.5 6.8 c-9.1 9.4 -16.9 13.1 -28.7 13.7 -6.9 0.3 -9.9 0 -13.9 -1.5z m25.4 -5.8 c7.6 -2.5 14 -7.9 18.1 -15.3 3 -5.5 3.5 -7.6 3.9 -14.5 0.5 -10 -1.9 -17.1 -7.9 -24 -5.7 -6.4 -11.1 -9.4 -20 -10.7 -13.3 -2.1 -23.4 1.9 -31.9 12.6 -5.2 6.6 -6.3 10.1 -6.4 20 0 7.4 0.4 9.8 2.3 13.8 4.2 8.8 11.9 15.6 20.5 18.3 5.7 1.8 15.5 1.7 21.4 -0.2z"/>
  <path d="M117 178 c0 -2.6 -2.5 -3.6 -4.5 -2 -2.3 1.9 -5.7 -1.4 -4.9 -4.6 0.5 -1.9 0.2 -2.4 -1.3 -2.4 -4 0 -5.9 -5 -2.5 -6.9 1.6 -1 1.5 -1.2 -0.6 -2.9 -3.1 -2.4 -2.7 -6.6 0.6 -7 2.2 -0.3 3 -2.6 1.2 -3.7 -0.6 -0.3 -0.5 -1.5 0.2 -3.1 0.9 -2 1.7 -2.4 3.8 -1.9 2.4 0.5 2.8 0.2 3.3 -2.4 0.6 -2.8 4.7 -5.5 5.4 -3.5 0.8 2.2 2.5 3.8 2.9 2.8 1.4 -3.4 3.1 -4.5 5.7 -3.9 1.7 0.5 2.7 1.4 2.7 2.5 0 2.6 1.5 3.3 3.9 1.8 2.9 -1.8 5.4 0.6 4.6 4.4 -0.6 2.5 -0.4 2.8 1.9 2.8 3.8 0 5.8 4.4 3 6.5 -1.9 1.4 -1.8 1.5 0.4 3.3 2 1.5 2.2 2.2 1.3 4.5 -0.7 1.7 -1.6 2.5 -2.5 2.1 -1.9 -0.7 -3 1.4 -1.6 3.1 1.3 1.6 0.4 5.4 -1.3 5.6 -0.7 0.1 -2.2 0 -3.4 -0.1 -1.7 -0.1 -2.2 0.5 -2.5 2.7 -0.4 3.4 -4.2 4.5 -6.2 1.7 -1.4 -1.9 -3.6 -1.2 -3.6 1.2 0 0.9 -1.1 1.4 -3 1.4 -2.3 0 -3 -0.4 -3 -2z m10.5 -8.4 c4.9 -2.1 7.7 -7 7.2 -12.5 -1.3 -12.5 -18.5 -15 -23.3 -3.4 -2.6 6.2 -0.1 12.5 6.3 15.8 3.5 1.9 5.5 1.9 9.8 0.1z"/>
  <path d="M118.7 162.2 c-4 -4.4 -0.7 -9.7 5.5 -9.3 2.5 0.2 5.1 5.6 3.9 8 -1.9 3.5 -6.8 4.2 -9.4 1.3z"/>
  <path d="M244.7 160.2 l4.7 -8.9 -3.1 -5.9 c-11.5 -21.9 -3.3 -47 18.7 -57.3 4.8 -2.3 6.8 -2.6 15.5 -2.6 8.1 0 11.1 0.4 15.8 2.3 8 3.3 16.4 11.3 20.7 19.8 3.3 6.4 3.4 7.2 3.4 17.3 0 9.7 -0.2 11.2 -2.8 16.5 -3.7 7.5 -12.4 16.2 -20.1 20.1 -5.4 2.7 -6.7 2.9 -16.4 2.9 -9.4 0 -11.3 -0.3 -16.5 -2.7 -3.2 -1.5 -6.8 -2.7 -7.9 -2.7 -1.1 0 -5 2.3 -8.7 5 -3.7 2.8 -7 5 -7.4 5 -0.3 0 1.6 -4 4.1 -8.8z m48.3 -3 c6.2 -2.7 12.5 -8.5 16 -14.6 2.8 -4.8 3 -5.8 3 -15.7 0 -9.3 -0.3 -11.1 -2.5 -15.6 -3.1 -6.1 -9.9 -12.7 -16.3 -15.6 -6.9 -3.2 -20.7 -3.1 -27.9 0.2 -6.3 2.8 -13.6 10.3 -16.5 16.9 -2.9 6.5 -3.5 17.5 -1.4 23.8 3.2 9.5 11.7 18.2 21.4 22 5.1 1.9 18.3 1.2 24.2 -1.4z"/>
  <path d="M276.1 146.8 c-0.8 -2 -1.8 -2.7 -4.3 -3 -3.2 -0.3 -3.3 -0.5 -3.6 -5 -0.2 -2.6 0.1 -5.5 0.6 -6.5 0.8 -1.4 1.2 -1.2 2.5 1.4 1.7 3.3 4.5 5.9 5.3 5 0.3 -0.3 1 -2.5 1.5 -4.9 0.9 -3.9 0.8 -4.4 -1.3 -6 -7.6 -5.6 -7.8 -5.9 -7.8 -9.7 0 -2 0.7 -4.7 1.6 -5.9 1.8 -2.6 6.5 -5.2 9.4 -5.2 1.1 0 2 -0.4 2 -0.8 0 -0.5 0.6 -1.7 1.4 -2.8 1.4 -1.8 1.5 -1.8 2.5 0.8 0.7 1.9 1.8 2.8 3.8 3 2.5 0.3 2.8 0.8 3.1 4.2 0.2 2.1 0 4.6 -0.3 5.5 -0.5 1.3 -1.2 1 -3.6 -1.9 -2.4 -2.9 -3 -3.2 -3.9 -2 -0.5 0.8 -1 3.1 -1 5 0.1 3.1 0.5 3.7 4 5.3 4.2 2 7 5.9 7 10 0 4.4 -6.8 10.7 -11.7 10.7 -0.9 0 -2.7 1.2 -3.9 2.8 l-2.2 2.7 -1.1 -2.7z m10.3 -7.9 c3.3 -2.6 3.3 -5.2 -0.1 -7.9 -3.3 -2.6 -4.2 -1.7 -5 4.8 -0.7 6 0.5 6.7 5.1 3.1z m-6 -20.5 c0.3 -0.9 0.6 -2.9 0.6 -4.6 0 -2.5 -0.3 -2.9 -2.2 -2.6 -2.9 0.4 -4.7 5 -2.8 7.2 1.6 2 3.6 2 4.4 0z"/>
  <path d="M202.6 145.5 c-5.3 -8.4 -6.7 -9.5 -12.3 -9.5 -5 0 -14.2 -2.4 -19.5 -5.1 -5.9 -3 -13.1 -10.8 -16.7 -18 -2.9 -5.8 -3.1 -6.9 -3.1 -17.3 0 -10.1 0.2 -11.6 2.8 -16.5 12.9 -25.6 45 -31.4 64.8 -11.7 15.8 15.9 15.8 41.6 0.1 56.2 -2.9 2.7 -7 6.3 -9.1 7.9 l-3.8 3 1.1 8.9 c0.6 4.9 0.9 9.1 0.7 9.3 -0.2 0.2 -2.5 -3 -5 -7.2z m2.5 -17.7 c7.2 -3.3 12.8 -8.9 16.4 -16.2 2.4 -4.9 2.8 -6.9 2.7 -14.1 0 -6.7 -0.5 -9.5 -2.5 -13.7 -3 -6.6 -9.2 -12.9 -16 -16.2 -4.4 -2.3 -6.4 -2.6 -14.6 -2.6 -7.5 0 -10.6 0.5 -14.1 2.1 -6.3 2.8 -12.7 9.4 -16.1 16.4 -2.5 5.3 -2.9 7.1 -2.9 15 0 8.3 0.3 9.5 3.3 14.9 4.1 7.3 10.5 12.9 17.8 15.6 7.7 2.9 18.4 2.4 26 -1.2z"/>
  <path d="M183.2 117.7 c-16.8 -6.1 -19.6 -28.5 -4.9 -38.5 8.3 -5.7 8.3 -5.7 9.7 6.2 0.7 5.7 1.6 11 2 11.6 0.6 0.9 3.2 -0.1 9.4 -3.5 4.7 -2.5 9.4 -4.5 10.3 -4.3 2.1 0.4 3.5 5.9 2.6 10.8 -2.3 13.7 -16.4 22.3 -29.1 17.7z"/>
  <path d="M190.7 88.3 c-1.2 -12.2 -1 -13.3 1.8 -13.3 3.4 0 11.4 4.1 14.4 7.4 1.4 1.4 2.3 2.7 2 2.9 -0.6 0.5 -17.1 9.7 -17.4 9.7 -0.1 0 -0.5 -3 -0.8 -6.7z"/>
 </g>
</svg>